<svg xmlns="http://www.w3.org/2000/svg" version="1.1" xmlns:xlink="http://www.w3.org/1999/xlink" xmlns:svgjs="http://svgjs.com/svgjs" width="1440" height="560" preserveAspectRatio="none" viewBox="0 0 1440 560"><g mask="url(&quot;#SvgjsMask2528&quot;)" fill="none"><rect width="1440" height="560" x="0" y="0" fill="rgba(4, 4, 4, 1)"></rect><path d="M-67.75 356.6L-67.75 356.6" stroke="rgba(255, 231, 21, 1)" stroke-width="1.5"></path><path d="M-67.75 356.6L56.94 351.16" stroke="rgba(255, 231, 21, 1)" stroke-width="1.5"></path><path d="M-67.75 356.6L-97.85 489.85" stroke="rgba(255, 231, 21, 1)" stroke-width="1.5"></path><path d="M-67.75 356.6L84.78 518.85" stroke="rgba(255, 231, 21, 1)" stroke-width="1.5"></path><path d="M-97.85 489.85L-97.85 489.85" stroke="rgba(255, 231, 21, 1)" stroke-width="1.5"></path><path d="M-97.85 489.85L-93.52 648.37" stroke="rgba(255, 231, 21, 1)" stroke-width="1.5"></path><path d="M-97.85 489.85L84.78 518.85" stroke="rgba(255, 231, 21, 1)" stroke-width="1.5"></path><path d="M-97.85 489.85L56.94 351.16" stroke="rgba(255, 231, 21, 1)" stroke-width="1.5"></path><path d="M-93.52 648.37L-93.52 648.37" stroke="rgba(255, 231, 21, 1)" stroke-width="1.5"></path><path d="M56.94 351.16L56.94 351.16" stroke="rgba(255, 231, 21, 1)" stroke-width="1.5"></path><path d="M84.78 518.85L84.78 518.85" stroke="rgba(255, 231, 21, 1)" stroke-width="1.5"></path><path d="M84.78 518.85L218.54 501.83" stroke="rgba(255, 231, 21, 1)" stroke-width="1.5"></path><path d="M84.78 518.85L76.57 661.73" stroke="rgba(255, 231, 21, 1)" stroke-width="1.5"></path><path d="M84.78 518.85L56.94 351.16" stroke="rgba(255, 231, 21, 1)" stroke-width="1.5"></path><path d="M76.57 661.73L76.57 661.73" stroke="rgba(255, 231, 21, 1)" stroke-width="1.5"></path><path d="M76.57 661.73L195.55 669.21" stroke="rgba(255, 231, 21, 1)" stroke-width="1.5"></path><path d="M76.57 661.73L-93.52 648.37" stroke="rgba(255, 231, 21, 1)" stroke-width="1.5"></path><path d="M76.57 661.73L218.54 501.83" stroke="rgba(255, 231, 21, 1)" stroke-width="1.5"></path><path d="M76.57 661.73L-97.85 489.85" stroke="rgba(255, 231, 21, 1)" stroke-width="1.5"></path><path d="M223.38 377.14L223.38 377.14" stroke="rgba(255, 231, 21, 1)" stroke-width="1.5"></path><path d="M223.38 377.14L218.54 501.83" stroke="rgba(255, 231, 21, 1)" stroke-width="1.5"></path><path d="M223.38 377.14L56.94 351.16" stroke="rgba(255, 231, 21, 1)" stroke-width="1.5"></path><path d="M223.38 377.14L84.78 518.85" stroke="rgba(255, 231, 21, 1)" stroke-width="1.5"></path><path d="M218.54 501.83L218.54 501.83" stroke="rgba(255, 231, 21, 1)" stroke-width="1.5"></path><path d="M218.54 501.83L380.24 522.72" stroke="rgba(255, 231, 21, 1)" stroke-width="1.5"></path><path d="M218.54 501.83L195.55 669.21" stroke="rgba(255, 231, 21, 1)" stroke-width="1.5"></path><path d="M218.54 501.83L353.45 641.19" stroke="rgba(255, 231, 21, 1)" stroke-width="1.5"></path><path d="M195.55 669.21L195.55 669.21" stroke="rgba(255, 231, 21, 1)" stroke-width="1.5"></path><path d="M195.55 669.21L353.45 641.19" stroke="rgba(255, 231, 21, 1)" stroke-width="1.5"></path><path d="M195.55 669.21L84.78 518.85" stroke="rgba(255, 231, 21, 1)" stroke-width="1.5"></path><path d="M380.24 522.72L380.24 522.72" stroke="rgba(255, 231, 21, 1)" stroke-width="1.5"></path><path d="M380.24 522.72L353.45 641.19" stroke="rgba(255, 231, 21, 1)" stroke-width="1.5"></path><path d="M380.24 522.72L539.99 505.88" stroke="rgba(255, 231, 21, 1)" stroke-width="1.5"></path><path d="M380.24 522.72L223.38 377.14" stroke="rgba(255, 231, 21, 1)" stroke-width="1.5"></path><path d="M380.24 522.72L492.3 340.38" stroke="rgba(255, 231, 21, 1)" stroke-width="1.5"></path><path d="M380.24 522.72L538.46 670.58" stroke="rgba(255, 231, 21, 1)" stroke-width="1.5"></path><path d="M353.45 641.19L353.45 641.19" stroke="rgba(255, 231, 21, 1)" stroke-width="1.5"></path><path d="M492.3 340.38L492.3 340.38" stroke="rgba(255, 231, 21, 1)" stroke-width="1.5"></path><path d="M492.3 340.38L539.99 505.88" stroke="rgba(255, 231, 21, 1)" stroke-width="1.5"></path><path d="M492.3 340.38L705.62 357.94" stroke="rgba(255, 231, 21, 1)" stroke-width="1.5"></path><path d="M492.3 340.38L684.58 229.87" stroke="rgba(255, 231, 21, 1)" stroke-width="1.5"></path><path d="M539.99 505.88L539.99 505.88" stroke="rgba(255, 231, 21, 1)" stroke-width="1.5"></path><path d="M539.99 505.88L538.46 670.58" stroke="rgba(255, 231, 21, 1)" stroke-width="1.5"></path><path d="M539.99 505.88L706.94 513.73" stroke="rgba(255, 231, 21, 1)" stroke-width="1.5"></path><path d="M539.99 505.88L677.29 645.23" stroke="rgba(255, 231, 21, 1)" stroke-width="1.5"></path><path d="M538.46 670.58L538.46 670.58" stroke="rgba(255, 231, 21, 1)" stroke-width="1.5"></path><path d="M538.46 670.58L677.29 645.23" stroke="rgba(255, 231, 21, 1)" stroke-width="1.5"></path><path d="M538.46 670.58L353.45 641.19" stroke="rgba(255, 231, 21, 1)" stroke-width="1.5"></path><path d="M684.58 229.87L684.58 229.87" stroke="rgba(255, 231, 21, 1)" stroke-width="1.5"></path><path d="M684.58 229.87L705.62 357.94" stroke="rgba(255, 231, 21, 1)" stroke-width="1.5"></path><path d="M684.58 229.87L830.79 196.89" stroke="rgba(255, 231, 21, 1)" stroke-width="1.5"></path><path d="M684.58 229.87L840.75 360.64" stroke="rgba(255, 231, 21, 1)" stroke-width="1.5"></path><path d="M684.58 229.87L950.16 212.1" stroke="rgba(255, 231, 21, 1)" stroke-width="1.5"></path><path d="M684.58 229.87L706.94 513.73" stroke="rgba(255, 231, 21, 1)" stroke-width="1.5"></path><path d="M705.62 357.94L705.62 357.94" stroke="rgba(255, 231, 21, 1)" stroke-width="1.5"></path><path d="M705.62 357.94L840.75 360.64" stroke="rgba(255, 231, 21, 1)" stroke-width="1.5"></path><path d="M705.62 357.94L706.94 513.73" stroke="rgba(255, 231, 21, 1)" stroke-width="1.5"></path><path d="M705.62 357.94L830.79 196.89" stroke="rgba(255, 231, 21, 1)" stroke-width="1.5"></path><path d="M706.94 513.73L706.94 513.73" stroke="rgba(255, 231, 21, 1)" stroke-width="1.5"></path><path d="M706.94 513.73L815.57 545.75" stroke="rgba(255, 231, 21, 1)" stroke-width="1.5"></path><path d="M677.29 645.23L677.29 645.23" stroke="rgba(255, 231, 21, 1)" stroke-width="1.5"></path><path d="M677.29 645.23L803.76 654.69" stroke="rgba(255, 231, 21, 1)" stroke-width="1.5"></path><path d="M677.29 645.23L706.94 513.73" stroke="rgba(255, 231, 21, 1)" stroke-width="1.5"></path><path d="M677.29 645.23L815.57 545.75" stroke="rgba(255, 231, 21, 1)" stroke-width="1.5"></path><path d="M830.79 196.89L830.79 196.89" stroke="rgba(255, 231, 21, 1)" stroke-width="1.5"></path><path d="M830.79 196.89L950.16 212.1" stroke="rgba(255, 231, 21, 1)" stroke-width="1.5"></path><path d="M830.79 196.89L840.75 360.64" stroke="rgba(255, 231, 21, 1)" stroke-width="1.5"></path><path d="M840.75 360.64L840.75 360.64" stroke="rgba(255, 231, 21, 1)" stroke-width="1.5"></path><path d="M840.75 360.64L975.97 351.83" stroke="rgba(255, 231, 21, 1)" stroke-width="1.5"></path><path d="M840.75 360.64L950.16 212.1" stroke="rgba(255, 231, 21, 1)" stroke-width="1.5"></path><path d="M840.75 360.64L815.57 545.75" stroke="rgba(255, 231, 21, 1)" stroke-width="1.5"></path><path d="M840.75 360.64L706.94 513.73" stroke="rgba(255, 231, 21, 1)" stroke-width="1.5"></path><path d="M815.57 545.75L815.57 545.75" stroke="rgba(255, 231, 21, 1)" stroke-width="1.5"></path><path d="M815.57 545.75L803.76 654.69" stroke="rgba(255, 231, 21, 1)" stroke-width="1.5"></path><path d="M815.57 545.75L971.13 561.72" stroke="rgba(255, 231, 21, 1)" stroke-width="1.5"></path><path d="M815.57 545.75L979.26 642.98" stroke="rgba(255, 231, 21, 1)" stroke-width="1.5"></path><path d="M803.76 654.69L803.76 654.69" stroke="rgba(255, 231, 21, 1)" stroke-width="1.5"></path><path d="M803.76 654.69L706.94 513.73" stroke="rgba(255, 231, 21, 1)" stroke-width="1.5"></path><path d="M803.76 654.69L979.26 642.98" stroke="rgba(255, 231, 21, 1)" stroke-width="1.5"></path><path d="M938.38 -93.3L938.38 -93.3" stroke="rgba(255, 231, 21, 1)" stroke-width="1.5"></path><path d="M938.38 -93.3L979.05 43.05" stroke="rgba(255, 231, 21, 1)" stroke-width="1.5"></path><path d="M938.38 -93.3L1114.21 -49.31" stroke="rgba(255, 231, 21, 1)" stroke-width="1.5"></path><path d="M938.38 -93.3L1156.72 78.65" stroke="rgba(255, 231, 21, 1)" stroke-width="1.5"></path><path d="M938.38 -93.3L950.16 212.1" stroke="rgba(255, 231, 21, 1)" stroke-width="1.5"></path><path d="M938.38 -93.3L830.79 196.89" stroke="rgba(255, 231, 21, 1)" stroke-width="1.5"></path><path d="M938.38 -93.3L1277.13 -70.87" stroke="rgba(255, 231, 21, 1)" stroke-width="1.5"></path><path d="M979.05 43.05L979.05 43.05" stroke="rgba(255, 231, 21, 1)" stroke-width="1.5"></path><path d="M979.05 43.05L1114.21 -49.31" stroke="rgba(255, 231, 21, 1)" stroke-width="1.5"></path><path d="M950.16 212.1L950.16 212.1" stroke="rgba(255, 231, 21, 1)" stroke-width="1.5"></path><path d="M950.16 212.1L975.97 351.83" stroke="rgba(255, 231, 21, 1)" stroke-width="1.5"></path><path d="M950.16 212.1L979.05 43.05" stroke="rgba(255, 231, 21, 1)" stroke-width="1.5"></path><path d="M950.16 212.1L1133.56 247.78" stroke="rgba(255, 231, 21, 1)" stroke-width="1.5"></path><path d="M975.97 351.83L975.97 351.83" stroke="rgba(255, 231, 21, 1)" stroke-width="1.5"></path><path d="M975.97 351.83L1139.53 384.37" stroke="rgba(255, 231, 21, 1)" stroke-width="1.5"></path><path d="M971.13 561.72L971.13 561.72" stroke="rgba(255, 231, 21, 1)" stroke-width="1.5"></path><path d="M971.13 561.72L979.26 642.98" stroke="rgba(255, 231, 21, 1)" stroke-width="1.5"></path><path d="M971.13 561.72L1094.06 668.25" stroke="rgba(255, 231, 21, 1)" stroke-width="1.5"></path><path d="M971.13 561.72L1151.59 516.49" stroke="rgba(255, 231, 21, 1)" stroke-width="1.5"></path><path d="M971.13 561.72L803.76 654.69" stroke="rgba(255, 231, 21, 1)" stroke-width="1.5"></path><path d="M979.26 642.98L979.26 642.98" stroke="rgba(255, 231, 21, 1)" stroke-width="1.5"></path><path d="M979.26 642.98L1094.06 668.25" stroke="rgba(255, 231, 21, 1)" stroke-width="1.5"></path><path d="M1114.21 -49.31L1114.21 -49.31" stroke="rgba(255, 231, 21, 1)" stroke-width="1.5"></path><path d="M1114.21 -49.31L1156.72 78.65" stroke="rgba(255, 231, 21, 1)" stroke-width="1.5"></path><path d="M1114.21 -49.31L1277.13 -70.87" stroke="rgba(255, 231, 21, 1)" stroke-width="1.5"></path><path d="M1114.21 -49.31L1239.18 79.65" stroke="rgba(255, 231, 21, 1)" stroke-width="1.5"></path><path d="M1156.72 78.65L1156.72 78.65" stroke="rgba(255, 231, 21, 1)" stroke-width="1.5"></path><path d="M1156.72 78.65L1239.18 79.65" stroke="rgba(255, 231, 21, 1)" stroke-width="1.5"></path><path d="M1156.72 78.65L1133.56 247.78" stroke="rgba(255, 231, 21, 1)" stroke-width="1.5"></path><path d="M1156.72 78.65L1253.95 225.17" stroke="rgba(255, 231, 21, 1)" stroke-width="1.5"></path><path d="M1156.72 78.65L979.05 43.05" stroke="rgba(255, 231, 21, 1)" stroke-width="1.5"></path><path d="M1133.56 247.78L1133.56 247.78" stroke="rgba(255, 231, 21, 1)" stroke-width="1.5"></path><path d="M1133.56 247.78L1253.95 225.17" stroke="rgba(255, 231, 21, 1)" stroke-width="1.5"></path><path d="M1133.56 247.78L1139.53 384.37" stroke="rgba(255, 231, 21, 1)" stroke-width="1.5"></path><path d="M1133.56 247.78L1247.93 372.81" stroke="rgba(255, 231, 21, 1)" stroke-width="1.5"></path><path d="M1139.53 384.37L1139.53 384.37" stroke="rgba(255, 231, 21, 1)" stroke-width="1.5"></path><path d="M1139.53 384.37L1247.93 372.81" stroke="rgba(255, 231, 21, 1)" stroke-width="1.5"></path><path d="M1139.53 384.37L1151.59 516.49" stroke="rgba(255, 231, 21, 1)" stroke-width="1.5"></path><path d="M1139.53 384.37L1253.95 225.17" stroke="rgba(255, 231, 21, 1)" stroke-width="1.5"></path><path d="M1151.59 516.49L1151.59 516.49" stroke="rgba(255, 231, 21, 1)" stroke-width="1.5"></path><path d="M1151.59 516.49L1308.28 536.32" stroke="rgba(255, 231, 21, 1)" stroke-width="1.5"></path><path d="M1151.59 516.49L1094.06 668.25" stroke="rgba(255, 231, 21, 1)" stroke-width="1.5"></path><path d="M1094.06 668.25L1094.06 668.25" stroke="rgba(255, 231, 21, 1)" stroke-width="1.5"></path><path d="M1277.13 -70.87L1277.13 -70.87" stroke="rgba(255, 231, 21, 1)" stroke-width="1.5"></path><path d="M1277.13 -70.87L1410.07 -71.5" stroke="rgba(255, 231, 21, 1)" stroke-width="1.5"></path><path d="M1277.13 -70.87L1239.18 79.65" stroke="rgba(255, 231, 21, 1)" stroke-width="1.5"></path><path d="M1277.13 -70.87L1156.72 78.65" stroke="rgba(255, 231, 21, 1)" stroke-width="1.5"></path><path d="M1277.13 -70.87L1400.7 77.86" stroke="rgba(255, 231, 21, 1)" stroke-width="1.5"></path><path d="M1239.18 79.65L1239.18 79.65" stroke="rgba(255, 231, 21, 1)" stroke-width="1.5"></path><path d="M1239.18 79.65L1253.95 225.17" stroke="rgba(255, 231, 21, 1)" stroke-width="1.5"></path><path d="M1253.95 225.17L1253.95 225.17" stroke="rgba(255, 231, 21, 1)" stroke-width="1.5"></path><path d="M1253.95 225.17L1247.93 372.81" stroke="rgba(255, 231, 21, 1)" stroke-width="1.5"></path><path d="M1247.93 372.81L1247.93 372.81" stroke="rgba(255, 231, 21, 1)" stroke-width="1.5"></path><path d="M1247.93 372.81L1151.59 516.49" stroke="rgba(255, 231, 21, 1)" stroke-width="1.5"></path><path d="M1247.93 372.81L1308.28 536.32" stroke="rgba(255, 231, 21, 1)" stroke-width="1.5"></path><path d="M1247.93 372.81L1446.53 388.53" stroke="rgba(255, 231, 21, 1)" stroke-width="1.5"></path><path d="M1308.28 536.32L1308.28 536.32" stroke="rgba(255, 231, 21, 1)" stroke-width="1.5"></path><path d="M1308.28 536.32L1442.26 550.87" stroke="rgba(255, 231, 21, 1)" stroke-width="1.5"></path><path d="M1308.28 536.32L1295.11 699.43" stroke="rgba(255, 231, 21, 1)" stroke-width="1.5"></path><path d="M1308.28 536.32L1424.42 693.96" stroke="rgba(255, 231, 21, 1)" stroke-width="1.5"></path><path d="M1295.11 699.43L1295.11 699.43" stroke="rgba(255, 231, 21, 1)" stroke-width="1.5"></path><path d="M1295.11 699.43L1424.42 693.96" stroke="rgba(255, 231, 21, 1)" stroke-width="1.5"></path><path d="M1295.11 699.43L1094.06 668.25" stroke="rgba(255, 231, 21, 1)" stroke-width="1.5"></path><path d="M1295.11 699.43L1442.26 550.87" stroke="rgba(255, 231, 21, 1)" stroke-width="1.5"></path><path d="M1295.11 699.43L1151.59 516.49" stroke="rgba(255, 231, 21, 1)" stroke-width="1.5"></path><path d="M1410.07 -71.5L1410.07 -71.5" stroke="rgba(255, 231, 21, 1)" stroke-width="1.5"></path><path d="M1410.07 -71.5L1400.7 77.86" stroke="rgba(255, 231, 21, 1)" stroke-width="1.5"></path><path d="M1410.07 -71.5L1558.33 -43.77" stroke="rgba(255, 231, 21, 1)" stroke-width="1.5"></path><path d="M1410.07 -71.5L1567.22 56.23" stroke="rgba(255, 231, 21, 1)" stroke-width="1.5"></path><path d="M1410.07 -71.5L1239.18 79.65" stroke="rgba(255, 231, 21, 1)" stroke-width="1.5"></path><path d="M1400.7 77.86L1400.7 77.86" stroke="rgba(255, 231, 21, 1)" stroke-width="1.5"></path><path d="M1400.7 77.86L1448.58 190.41" stroke="rgba(255, 231, 21, 1)" stroke-width="1.5"></path><path d="M1400.7 77.86L1239.18 79.65" stroke="rgba(255, 231, 21, 1)" stroke-width="1.5"></path><path d="M1400.7 77.86L1567.22 56.23" stroke="rgba(255, 231, 21, 1)" stroke-width="1.5"></path><path d="M1400.7 77.86L1558.33 -43.77" stroke="rgba(255, 231, 21, 1)" stroke-width="1.5"></path><path d="M1448.58 190.41L1448.58 190.41" stroke="rgba(255, 231, 21, 1)" stroke-width="1.5"></path><path d="M1448.58 190.41L1567.22 56.23" stroke="rgba(255, 231, 21, 1)" stroke-width="1.5"></path><path d="M1448.58 190.41L1253.95 225.17" stroke="rgba(255, 231, 21, 1)" stroke-width="1.5"></path><path d="M1448.58 190.41L1446.53 388.53" stroke="rgba(255, 231, 21, 1)" stroke-width="1.5"></path><path d="M1448.58 190.41L1590.82 355.95" stroke="rgba(255, 231, 21, 1)" stroke-width="1.5"></path><path d="M1446.53 388.53L1446.53 388.53" stroke="rgba(255, 231, 21, 1)" stroke-width="1.5"></path><path d="M1446.53 388.53L1590.82 355.95" stroke="rgba(255, 231, 21, 1)" stroke-width="1.5"></path><path d="M1446.53 388.53L1442.26 550.87" stroke="rgba(255, 231, 21, 1)" stroke-width="1.5"></path><path d="M1442.26 550.87L1442.26 550.87" stroke="rgba(255, 231, 21, 1)" stroke-width="1.5"></path><path d="M1442.26 550.87L1424.42 693.96" stroke="rgba(255, 231, 21, 1)" stroke-width="1.5"></path><path d="M1442.26 550.87L1541.66 665.19" stroke="rgba(255, 231, 21, 1)" stroke-width="1.5"></path><path d="M1424.42 693.96L1424.42 693.96" stroke="rgba(255, 231, 21, 1)" stroke-width="1.5"></path><path d="M1424.42 693.96L1541.66 665.19" stroke="rgba(255, 231, 21, 1)" stroke-width="1.5"></path><path d="M1558.33 -43.77L1558.33 -43.77" stroke="rgba(255, 231, 21, 1)" stroke-width="1.5"></path><path d="M1558.33 -43.77L1567.22 56.23" stroke="rgba(255, 231, 21, 1)" stroke-width="1.5"></path><path d="M1558.33 -43.77L1448.58 190.41" stroke="rgba(255, 231, 21, 1)" stroke-width="1.5"></path><path d="M1567.22 56.23L1567.22 56.23" stroke="rgba(255, 231, 21, 1)" stroke-width="1.5"></path><path d="M1567.22 56.23L1590.82 355.95" stroke="rgba(255, 231, 21, 1)" stroke-width="1.5"></path><path d="M1567.22 56.23L1277.13 -70.87" stroke="rgba(255, 231, 21, 1)" stroke-width="1.5"></path><path d="M1590.82 355.95L1590.82 355.95" stroke="rgba(255, 231, 21, 1)" stroke-width="1.5"></path><path d="M1541.66 665.19L1541.66 665.19" stroke="rgba(255, 231, 21, 1)" stroke-width="1.5"></path><path d="M1541.66 665.19L1295.11 699.43" stroke="rgba(255, 231, 21, 1)" stroke-width="1.5"></path><path d="M1541.66 665.19L1308.28 536.32" stroke="rgba(255, 231, 21, 1)" stroke-width="1.5"></path><circle r="5" cx="-67.75" cy="356.6" fill="rgba(255, 231, 21, 1)"></circle><circle r="5" cx="-97.85" cy="489.85" fill="rgba(255, 231, 21, 1)"></circle><circle r="5" cx="-93.52" cy="648.37" fill="rgba(255, 231, 21, 1)"></circle><circle r="5" cx="56.94" cy="351.16" fill="rgba(255, 231, 21, 1)"></circle><circle r="5" cx="84.78" cy="518.85" fill="rgba(255, 231, 21, 1)"></circle><circle r="5" cx="76.57" cy="661.73" fill="rgba(255, 231, 21, 1)"></circle><circle r="5" cx="223.38" cy="377.14" fill="rgba(255, 231, 21, 1)"></circle><circle r="5" cx="218.54" cy="501.83" fill="rgba(255, 231, 21, 1)"></circle><circle r="5" cx="195.55" cy="669.21" fill="rgba(255, 231, 21, 1)"></circle><circle r="5" cx="380.24" cy="522.72" fill="rgba(255, 231, 21, 1)"></circle><circle r="5" cx="353.45" cy="641.19" fill="rgba(255, 231, 21, 1)"></circle><circle r="5" cx="492.3" cy="340.38" fill="rgba(255, 231, 21, 1)"></circle><circle r="5" cx="539.99" cy="505.88" fill="rgba(255, 231, 21, 1)"></circle><circle r="5" cx="538.46" cy="670.58" fill="rgba(255, 231, 21, 1)"></circle><circle r="5" cx="684.58" cy="229.87" fill="rgba(255, 231, 21, 1)"></circle><circle r="5" cx="705.62" cy="357.94" fill="rgba(255, 231, 21, 1)"></circle><circle r="5" cx="706.94" cy="513.73" fill="rgba(255, 231, 21, 1)"></circle><circle r="5" cx="677.29" cy="645.23" fill="rgba(255, 231, 21, 1)"></circle><circle r="5" cx="830.79" cy="196.89" fill="rgba(255, 231, 21, 1)"></circle><circle r="5" cx="840.75" cy="360.64" fill="rgba(255, 231, 21, 1)"></circle><circle r="5" cx="815.57" cy="545.75" fill="rgba(255, 231, 21, 1)"></circle><circle r="5" cx="803.76" cy="654.69" fill="rgba(255, 231, 21, 1)"></circle><circle r="5" cx="938.38" cy="-93.3" fill="rgba(255, 231, 21, 1)"></circle><circle r="5" cx="979.05" cy="43.05" fill="rgba(255, 231, 21, 1)"></circle><circle r="5" cx="950.16" cy="212.1" fill="rgba(255, 231, 21, 1)"></circle><circle r="5" cx="975.97" cy="351.83" fill="rgba(255, 231, 21, 1)"></circle><circle r="5" cx="971.13" cy="561.72" fill="rgba(255, 231, 21, 1)"></circle><circle r="5" cx="979.26" cy="642.98" fill="rgba(255, 231, 21, 1)"></circle><circle r="5" cx="1114.21" cy="-49.31" fill="rgba(255, 231, 21, 1)"></circle><circle r="5" cx="1156.72" cy="78.65" fill="rgba(255, 231, 21, 1)"></circle><circle r="5" cx="1133.56" cy="247.78" fill="rgba(255, 231, 21, 1)"></circle><circle r="5" cx="1139.53" cy="384.37" fill="rgba(255, 231, 21, 1)"></circle><circle r="5" cx="1151.59" cy="516.49" fill="rgba(255, 231, 21, 1)"></circle><circle r="5" cx="1094.06" cy="668.25" fill="rgba(255, 231, 21, 1)"></circle><circle r="5" cx="1277.13" cy="-70.87" fill="rgba(255, 231, 21, 1)"></circle><circle r="5" cx="1239.18" cy="79.65" fill="rgba(255, 231, 21, 1)"></circle><circle r="5" cx="1253.95" cy="225.17" fill="rgba(255, 231, 21, 1)"></circle><circle r="5" cx="1247.93" cy="372.81" fill="rgba(255, 231, 21, 1)"></circle><circle r="5" cx="1308.28" cy="536.32" fill="rgba(255, 231, 21, 1)"></circle><circle r="5" cx="1295.11" cy="699.43" fill="rgba(255, 231, 21, 1)"></circle><circle r="5" cx="1410.07" cy="-71.5" fill="rgba(255, 231, 21, 1)"></circle><circle r="5" cx="1400.7" cy="77.86" fill="rgba(255, 231, 21, 1)"></circle><circle r="5" cx="1448.58" cy="190.41" fill="rgba(255, 231, 21, 1)"></circle><circle r="5" cx="1446.53" cy="388.53" fill="rgba(255, 231, 21, 1)"></circle><circle r="5" cx="1442.26" cy="550.87" fill="rgba(255, 231, 21, 1)"></circle><circle r="5" cx="1424.42" cy="693.96" fill="rgba(255, 231, 21, 1)"></circle><circle r="5" cx="1558.33" cy="-43.77" fill="rgba(255, 231, 21, 1)"></circle><circle r="5" cx="1567.22" cy="56.23" fill="rgba(255, 231, 21, 1)"></circle><circle r="5" cx="1590.82" cy="355.95" fill="rgba(255, 231, 21, 1)"></circle><circle r="5" cx="1541.66" cy="665.19" fill="rgba(255, 231, 21, 1)"></circle><path d="M251.41 665.95L251.41 665.95" stroke="hsl(53.80000000000001, 100%, 70.4%)" stroke-width="1.5"></path><path d="M251.41 665.95L380.56 704.02" stroke="hsl(53.80000000000001, 100%, 70.4%)" stroke-width="1.5"></path><path d="M251.41 665.95L250.42 524.53" stroke="hsl(53.80000000000001, 100%, 70.4%)" stroke-width="1.5"></path><path d="M1248.12 356.28L1248.12 356.28" stroke="hsl(53.80000000000001, 100%, 70.4%)" stroke-width="1.5"></path><path d="M1248.12 356.28L1112.11 356.07" stroke="hsl(53.80000000000001, 100%, 70.4%)" stroke-width="1.5"></path><path d="M1248.12 356.28L1293.22 487.57" stroke="hsl(53.80000000000001, 100%, 70.4%)" stroke-width="1.5"></path><path d="M1408.19 373.05L1408.19 373.05" stroke="hsl(53.80000000000001, 100%, 70.4%)" stroke-width="1.5"></path><path d="M1408.19 373.05L1404.61 493.81" stroke="hsl(53.80000000000001, 100%, 70.4%)" stroke-width="1.5"></path><path d="M1408.19 373.05L1418.21 238.13" stroke="hsl(53.80000000000001, 100%, 70.4%)" stroke-width="1.5"></path><path d="M1408.19 373.05L1248.12 356.28" stroke="hsl(53.80000000000001, 100%, 70.4%)" stroke-width="1.5"></path><path d="M1408.19 373.05L1293.22 487.57" stroke="hsl(53.80000000000001, 100%, 70.4%)" stroke-width="1.5"></path><path d="M-91.28 548.37L-91.28 548.37" stroke="hsl(53.80000000000001, 100%, 70.4%)" stroke-width="1.5"></path><path d="M-91.28 548.37L-52.38 678.07" stroke="hsl(53.80000000000001, 100%, 70.4%)" stroke-width="1.5"></path><path d="M-91.28 548.37L84.08 654.69" stroke="hsl(53.80000000000001, 100%, 70.4%)" stroke-width="1.5"></path><path d="M-52.38 678.07L-52.38 678.07" stroke="hsl(53.80000000000001, 100%, 70.4%)" stroke-width="1.5"></path><path d="M112.04 501.7L112.04 501.7" stroke="hsl(53.80000000000001, 100%, 70.4%)" stroke-width="1.5"></path><path d="M112.04 501.7L250.42 524.53" stroke="hsl(53.80000000000001, 100%, 70.4%)" stroke-width="1.5"></path><path d="M112.04 501.7L84.08 654.69" stroke="hsl(53.80000000000001, 100%, 70.4%)" stroke-width="1.5"></path><path d="M112.04 501.7L-91.28 548.37" stroke="hsl(53.80000000000001, 100%, 70.4%)" stroke-width="1.5"></path><path d="M112.04 501.7L251.41 665.95" stroke="hsl(53.80000000000001, 100%, 70.4%)" stroke-width="1.5"></path><path d="M112.04 501.7L-52.38 678.07" stroke="hsl(53.80000000000001, 100%, 70.4%)" stroke-width="1.5"></path><path d="M112.04 501.7L387.66 549.46" stroke="hsl(53.80000000000001, 100%, 70.4%)" stroke-width="1.5"></path><path d="M84.08 654.69L84.08 654.69" stroke="hsl(53.80000000000001, 100%, 70.4%)" stroke-width="1.5"></path><path d="M84.08 654.69L-52.38 678.07" stroke="hsl(53.80000000000001, 100%, 70.4%)" stroke-width="1.5"></path><path d="M84.08 654.69L251.41 665.95" stroke="hsl(53.80000000000001, 100%, 70.4%)" stroke-width="1.5"></path><path d="M250.42 524.53L250.42 524.53" stroke="hsl(53.80000000000001, 100%, 70.4%)" stroke-width="1.5"></path><path d="M250.42 524.53L387.66 549.46" stroke="hsl(53.80000000000001, 100%, 70.4%)" stroke-width="1.5"></path><path d="M250.42 524.53L84.08 654.69" stroke="hsl(53.80000000000001, 100%, 70.4%)" stroke-width="1.5"></path><path d="M250.42 524.53L380.56 704.02" stroke="hsl(53.80000000000001, 100%, 70.4%)" stroke-width="1.5"></path><path d="M250.42 524.53L534.4 504.94" stroke="hsl(53.80000000000001, 100%, 70.4%)" stroke-width="1.5"></path><path d="M387.66 549.46L387.66 549.46" stroke="hsl(53.80000000000001, 100%, 70.4%)" stroke-width="1.5"></path><path d="M387.66 549.46L534.4 504.94" stroke="hsl(53.80000000000001, 100%, 70.4%)" stroke-width="1.5"></path><path d="M387.66 549.46L380.56 704.02" stroke="hsl(53.80000000000001, 100%, 70.4%)" stroke-width="1.5"></path><path d="M380.56 704.02L380.56 704.02" stroke="hsl(53.80000000000001, 100%, 70.4%)" stroke-width="1.5"></path><path d="M380.56 704.02L489.8 703.63" stroke="hsl(53.80000000000001, 100%, 70.4%)" stroke-width="1.5"></path><path d="M380.56 704.02L534.4 504.94" stroke="hsl(53.80000000000001, 100%, 70.4%)" stroke-width="1.5"></path><path d="M534.4 504.94L534.4 504.94" stroke="hsl(53.80000000000001, 100%, 70.4%)" stroke-width="1.5"></path><path d="M534.4 504.94L645.44 490.96" stroke="hsl(53.80000000000001, 100%, 70.4%)" stroke-width="1.5"></path><path d="M534.4 504.94L638.73 658.98" stroke="hsl(53.80000000000001, 100%, 70.4%)" stroke-width="1.5"></path><path d="M534.4 504.94L489.8 703.63" stroke="hsl(53.80000000000001, 100%, 70.4%)" stroke-width="1.5"></path><path d="M489.8 703.63L489.8 703.63" stroke="hsl(53.80000000000001, 100%, 70.4%)" stroke-width="1.5"></path><path d="M489.8 703.63L638.73 658.98" stroke="hsl(53.80000000000001, 100%, 70.4%)" stroke-width="1.5"></path><path d="M489.8 703.63L387.66 549.46" stroke="hsl(53.80000000000001, 100%, 70.4%)" stroke-width="1.5"></path><path d="M489.8 703.63L251.41 665.95" stroke="hsl(53.80000000000001, 100%, 70.4%)" stroke-width="1.5"></path><path d="M489.8 703.63L645.44 490.96" stroke="hsl(53.80000000000001, 100%, 70.4%)" stroke-width="1.5"></path><path d="M705.91 359.99L705.91 359.99" stroke="hsl(53.80000000000001, 100%, 70.4%)" stroke-width="1.5"></path><path d="M705.91 359.99L645.44 490.96" stroke="hsl(53.80000000000001, 100%, 70.4%)" stroke-width="1.5"></path><path d="M705.91 359.99L848.08 395.56" stroke="hsl(53.80000000000001, 100%, 70.4%)" stroke-width="1.5"></path><path d="M705.91 359.99L817.66 546.79" stroke="hsl(53.80000000000001, 100%, 70.4%)" stroke-width="1.5"></path><path d="M705.91 359.99L534.4 504.94" stroke="hsl(53.80000000000001, 100%, 70.4%)" stroke-width="1.5"></path><path d="M705.91 359.99L985.68 411.82" stroke="hsl(53.80000000000001, 100%, 70.4%)" stroke-width="1.5"></path><path d="M705.91 359.99L962.31 511.5" stroke="hsl(53.80000000000001, 100%, 70.4%)" stroke-width="1.5"></path><path d="M645.44 490.96L645.44 490.96" stroke="hsl(53.80000000000001, 100%, 70.4%)" stroke-width="1.5"></path><path d="M645.44 490.96L638.73 658.98" stroke="hsl(53.80000000000001, 100%, 70.4%)" stroke-width="1.5"></path><path d="M638.73 658.98L638.73 658.98" stroke="hsl(53.80000000000001, 100%, 70.4%)" stroke-width="1.5"></path><path d="M848.08 395.56L848.08 395.56" stroke="hsl(53.80000000000001, 100%, 70.4%)" stroke-width="1.5"></path><path d="M848.08 395.56L985.68 411.82" stroke="hsl(53.80000000000001, 100%, 70.4%)" stroke-width="1.5"></path><path d="M817.66 546.79L817.66 546.79" stroke="hsl(53.80000000000001, 100%, 70.4%)" stroke-width="1.5"></path><path d="M817.66 546.79L835.79 691.29" stroke="hsl(53.80000000000001, 100%, 70.4%)" stroke-width="1.5"></path><path d="M817.66 546.79L962.31 511.5" stroke="hsl(53.80000000000001, 100%, 70.4%)" stroke-width="1.5"></path><path d="M817.66 546.79L848.08 395.56" stroke="hsl(53.80000000000001, 100%, 70.4%)" stroke-width="1.5"></path><path d="M817.66 546.79L938.02 646.03" stroke="hsl(53.80000000000001, 100%, 70.4%)" stroke-width="1.5"></path><path d="M835.79 691.29L835.79 691.29" stroke="hsl(53.80000000000001, 100%, 70.4%)" stroke-width="1.5"></path><path d="M835.79 691.29L938.02 646.03" stroke="hsl(53.80000000000001, 100%, 70.4%)" stroke-width="1.5"></path><path d="M835.79 691.29L638.73 658.98" stroke="hsl(53.80000000000001, 100%, 70.4%)" stroke-width="1.5"></path><path d="M835.79 691.29L962.31 511.5" stroke="hsl(53.80000000000001, 100%, 70.4%)" stroke-width="1.5"></path><path d="M985.68 411.82L985.68 411.82" stroke="hsl(53.80000000000001, 100%, 70.4%)" stroke-width="1.5"></path><path d="M985.68 411.82L962.31 511.5" stroke="hsl(53.80000000000001, 100%, 70.4%)" stroke-width="1.5"></path><path d="M985.68 411.82L1112.11 356.07" stroke="hsl(53.80000000000001, 100%, 70.4%)" stroke-width="1.5"></path><path d="M985.68 411.82L1130.88 498.51" stroke="hsl(53.80000000000001, 100%, 70.4%)" stroke-width="1.5"></path><path d="M985.68 411.82L817.66 546.79" stroke="hsl(53.80000000000001, 100%, 70.4%)" stroke-width="1.5"></path><path d="M962.31 511.5L962.31 511.5" stroke="hsl(53.80000000000001, 100%, 70.4%)" stroke-width="1.5"></path><path d="M938.02 646.03L938.02 646.03" stroke="hsl(53.80000000000001, 100%, 70.4%)" stroke-width="1.5"></path><path d="M938.02 646.03L962.31 511.5" stroke="hsl(53.80000000000001, 100%, 70.4%)" stroke-width="1.5"></path><path d="M938.02 646.03L985.68 411.82" stroke="hsl(53.80000000000001, 100%, 70.4%)" stroke-width="1.5"></path><path d="M938.02 646.03L1130.88 498.51" stroke="hsl(53.80000000000001, 100%, 70.4%)" stroke-width="1.5"></path><path d="M1150.22 243.65L1150.22 243.65" stroke="hsl(53.80000000000001, 100%, 70.4%)" stroke-width="1.5"></path><path d="M1150.22 243.65L1255.13 213.6" stroke="hsl(53.80000000000001, 100%, 70.4%)" stroke-width="1.5"></path><path d="M1150.22 243.65L1112.11 356.07" stroke="hsl(53.80000000000001, 100%, 70.4%)" stroke-width="1.5"></path><path d="M1150.22 243.65L1248.12 356.28" stroke="hsl(53.80000000000001, 100%, 70.4%)" stroke-width="1.5"></path><path d="M1150.22 243.65L1255.67 51.23" stroke="hsl(53.80000000000001, 100%, 70.4%)" stroke-width="1.5"></path><path d="M1150.22 243.65L985.68 411.82" stroke="hsl(53.80000000000001, 100%, 70.4%)" stroke-width="1.5"></path><path d="M1150.22 243.65L1130.88 498.51" stroke="hsl(53.80000000000001, 100%, 70.4%)" stroke-width="1.5"></path><path d="M1112.11 356.07L1112.11 356.07" stroke="hsl(53.80000000000001, 100%, 70.4%)" stroke-width="1.5"></path><path d="M1112.11 356.07L1130.88 498.51" stroke="hsl(53.80000000000001, 100%, 70.4%)" stroke-width="1.5"></path><path d="M1130.88 498.51L1130.88 498.51" stroke="hsl(53.80000000000001, 100%, 70.4%)" stroke-width="1.5"></path><path d="M1130.88 498.51L1293.22 487.57" stroke="hsl(53.80000000000001, 100%, 70.4%)" stroke-width="1.5"></path><path d="M1130.88 498.51L962.31 511.5" stroke="hsl(53.80000000000001, 100%, 70.4%)" stroke-width="1.5"></path><path d="M1130.88 498.51L1248.12 356.28" stroke="hsl(53.80000000000001, 100%, 70.4%)" stroke-width="1.5"></path><path d="M1270.65 -97.45L1270.65 -97.45" stroke="hsl(53.80000000000001, 100%, 70.4%)" stroke-width="1.5"></path><path d="M1270.65 -97.45L1410.82 -103.83" stroke="hsl(53.80000000000001, 100%, 70.4%)" stroke-width="1.5"></path><path d="M1255.67 51.23L1255.67 51.23" stroke="hsl(53.80000000000001, 100%, 70.4%)" stroke-width="1.5"></path><path d="M1255.67 51.23L1397.84 61.21" stroke="hsl(53.80000000000001, 100%, 70.4%)" stroke-width="1.5"></path><path d="M1255.67 51.23L1270.65 -97.45" stroke="hsl(53.80000000000001, 100%, 70.4%)" stroke-width="1.5"></path><path d="M1255.13 213.6L1255.13 213.6" stroke="hsl(53.80000000000001, 100%, 70.4%)" stroke-width="1.5"></path><path d="M1255.13 213.6L1248.12 356.28" stroke="hsl(53.80000000000001, 100%, 70.4%)" stroke-width="1.5"></path><path d="M1255.13 213.6L1255.67 51.23" stroke="hsl(53.80000000000001, 100%, 70.4%)" stroke-width="1.5"></path><path d="M1293.22 487.57L1293.22 487.57" stroke="hsl(53.80000000000001, 100%, 70.4%)" stroke-width="1.5"></path><path d="M1293.22 487.57L1404.61 493.81" stroke="hsl(53.80000000000001, 100%, 70.4%)" stroke-width="1.5"></path><path d="M1293.22 487.57L1291.17 704.24" stroke="hsl(53.80000000000001, 100%, 70.4%)" stroke-width="1.5"></path><path d="M1291.17 704.24L1291.17 704.24" stroke="hsl(53.80000000000001, 100%, 70.4%)" stroke-width="1.5"></path><path d="M1291.17 704.24L1459.32 672.82" stroke="hsl(53.80000000000001, 100%, 70.4%)" stroke-width="1.5"></path><path d="M1291.17 704.24L1404.61 493.81" stroke="hsl(53.80000000000001, 100%, 70.4%)" stroke-width="1.5"></path><path d="M1291.17 704.24L1550.52 705.72" stroke="hsl(53.80000000000001, 100%, 70.4%)" stroke-width="1.5"></path><path d="M1291.17 704.24L1130.88 498.51" stroke="hsl(53.80000000000001, 100%, 70.4%)" stroke-width="1.5"></path><path d="M1410.82 -103.83L1410.82 -103.83" stroke="hsl(53.80000000000001, 100%, 70.4%)" stroke-width="1.5"></path><path d="M1410.82 -103.83L1397.84 61.21" stroke="hsl(53.80000000000001, 100%, 70.4%)" stroke-width="1.5"></path><path d="M1410.82 -103.83L1604.44 -106.93" stroke="hsl(53.80000000000001, 100%, 70.4%)" stroke-width="1.5"></path><path d="M1397.84 61.21L1397.84 61.21" stroke="hsl(53.80000000000001, 100%, 70.4%)" stroke-width="1.5"></path><path d="M1397.84 61.21L1418.21 238.13" stroke="hsl(53.80000000000001, 100%, 70.4%)" stroke-width="1.5"></path><path d="M1418.21 238.13L1418.21 238.13" stroke="hsl(53.80000000000001, 100%, 70.4%)" stroke-width="1.5"></path><path d="M1418.21 238.13L1556 208.68" stroke="hsl(53.80000000000001, 100%, 70.4%)" stroke-width="1.5"></path><path d="M1418.21 238.13L1255.13 213.6" stroke="hsl(53.80000000000001, 100%, 70.4%)" stroke-width="1.5"></path><path d="M1418.21 238.13L1583.27 351.47" stroke="hsl(53.80000000000001, 100%, 70.4%)" stroke-width="1.5"></path><path d="M1418.21 238.13L1579.86 110.31" stroke="hsl(53.80000000000001, 100%, 70.4%)" stroke-width="1.5"></path><path d="M1404.61 493.81L1404.61 493.81" stroke="hsl(53.80000000000001, 100%, 70.4%)" stroke-width="1.5"></path><path d="M1459.32 672.82L1459.32 672.82" stroke="hsl(53.80000000000001, 100%, 70.4%)" stroke-width="1.5"></path><path d="M1459.32 672.82L1550.52 705.72" stroke="hsl(53.80000000000001, 100%, 70.4%)" stroke-width="1.5"></path><path d="M1459.32 672.82L1578.62 552.75" stroke="hsl(53.80000000000001, 100%, 70.4%)" stroke-width="1.5"></path><path d="M1604.44 -106.93L1604.44 -106.93" stroke="hsl(53.80000000000001, 100%, 70.4%)" stroke-width="1.5"></path><path d="M1604.44 -106.93L1579.86 110.31" stroke="hsl(53.80000000000001, 100%, 70.4%)" stroke-width="1.5"></path><path d="M1579.86 110.31L1579.86 110.31" stroke="hsl(53.80000000000001, 100%, 70.4%)" stroke-width="1.5"></path><path d="M1579.86 110.31L1556 208.68" stroke="hsl(53.80000000000001, 100%, 70.4%)" stroke-width="1.5"></path><path d="M1579.86 110.31L1397.84 61.21" stroke="hsl(53.80000000000001, 100%, 70.4%)" stroke-width="1.5"></path><path d="M1556 208.68L1556 208.68" stroke="hsl(53.80000000000001, 100%, 70.4%)" stroke-width="1.5"></path><path d="M1556 208.68L1583.27 351.47" stroke="hsl(53.80000000000001, 100%, 70.4%)" stroke-width="1.5"></path><path d="M1556 208.68L1397.84 61.21" stroke="hsl(53.80000000000001, 100%, 70.4%)" stroke-width="1.5"></path><path d="M1583.27 351.47L1583.27 351.47" stroke="hsl(53.80000000000001, 100%, 70.4%)" stroke-width="1.5"></path><path d="M1583.27 351.47L1408.19 373.05" stroke="hsl(53.80000000000001, 100%, 70.4%)" stroke-width="1.5"></path><path d="M1578.62 552.75L1578.62 552.75" stroke="hsl(53.80000000000001, 100%, 70.4%)" stroke-width="1.5"></path><path d="M1578.62 552.75L1550.52 705.72" stroke="hsl(53.80000000000001, 100%, 70.4%)" stroke-width="1.5"></path><path d="M1578.62 552.75L1404.61 493.81" stroke="hsl(53.80000000000001, 100%, 70.4%)" stroke-width="1.5"></path><path d="M1578.62 552.75L1583.27 351.47" stroke="hsl(53.80000000000001, 100%, 70.4%)" stroke-width="1.5"></path><path d="M1550.52 705.72L1550.52 705.72" stroke="hsl(53.80000000000001, 100%, 70.4%)" stroke-width="1.5"></path><path d="M1550.52 705.72L1404.61 493.81" stroke="hsl(53.80000000000001, 100%, 70.4%)" stroke-width="1.5"></path><path d="M1550.52 705.72L1293.22 487.57" stroke="hsl(53.80000000000001, 100%, 70.4%)" stroke-width="1.5"></path><circle r="25" cx="251.41" cy="665.95" fill="url(#SvgjsRadialGradient2529)"></circle><circle r="25" cx="1248.12" cy="356.28" fill="url(#SvgjsRadialGradient2529)"></circle><circle r="25" cx="1408.19" cy="373.05" fill="url(#SvgjsRadialGradient2529)"></circle><circle r="5" cx="-91.28" cy="548.37" fill="#fff38a"></circle><circle r="5" cx="-52.38" cy="678.07" fill="#fff38a"></circle><circle r="5" cx="112.04" cy="501.7" fill="#fff38a"></circle><circle r="5" cx="84.08" cy="654.69" fill="#fff38a"></circle><circle r="5" cx="250.42" cy="524.53" fill="#fff38a"></circle><circle r="5" cx="387.66" cy="549.46" fill="#fff38a"></circle><circle r="5" cx="380.56" cy="704.02" fill="#fff38a"></circle><circle r="5" cx="534.4" cy="504.94" fill="#fff38a"></circle><circle r="5" cx="489.8" cy="703.63" fill="#fff38a"></circle><circle r="5" cx="705.91" cy="359.99" fill="#fff38a"></circle><circle r="5" cx="645.44" cy="490.96" fill="#fff38a"></circle><circle r="5" cx="638.73" cy="658.98" fill="#fff38a"></circle><circle r="5" cx="848.08" cy="395.56" fill="#fff38a"></circle><circle r="5" cx="817.66" cy="546.79" fill="#fff38a"></circle><circle r="5" cx="835.79" cy="691.29" fill="#fff38a"></circle><circle r="5" cx="985.68" cy="411.82" fill="#fff38a"></circle><circle r="5" cx="962.31" cy="511.5" fill="#fff38a"></circle><circle r="5" cx="938.02" cy="646.03" fill="#fff38a"></circle><circle r="5" cx="1150.22" cy="243.65" fill="#fff38a"></circle><circle r="5" cx="1112.11" cy="356.07" fill="#fff38a"></circle><circle r="5" cx="1130.88" cy="498.51" fill="#fff38a"></circle><circle r="5" cx="1270.65" cy="-97.45" fill="#fff38a"></circle><circle r="5" cx="1255.67" cy="51.23" fill="#fff38a"></circle><circle r="5" cx="1255.13" cy="213.6" fill="#fff38a"></circle><circle r="5" cx="1293.22" cy="487.57" fill="#fff38a"></circle><circle r="5" cx="1291.17" cy="704.24" fill="#fff38a"></circle><circle r="5" cx="1410.82" cy="-103.83" fill="#fff38a"></circle><circle r="5" cx="1397.84" cy="61.21" fill="#fff38a"></circle><circle r="5" cx="1418.21" cy="238.13" fill="#fff38a"></circle><circle r="5" cx="1404.61" cy="493.81" fill="#fff38a"></circle><circle r="5" cx="1459.32" cy="672.82" fill="#fff38a"></circle><circle r="5" cx="1604.44" cy="-106.93" fill="#fff38a"></circle><circle r="5" cx="1579.86" cy="110.31" fill="#fff38a"></circle><circle r="5" cx="1556" cy="208.68" fill="#fff38a"></circle><circle r="5" cx="1583.27" cy="351.47" fill="#fff38a"></circle><circle r="5" cx="1578.62" cy="552.75" fill="#fff38a"></circle><circle r="5" cx="1550.52" cy="705.72" fill="#fff38a"></circle></g><defs><mask id="SvgjsMask2528"><rect width="1440" height="560" fill="#ffffff"></rect></mask><radialGradient id="SvgjsRadialGradient2529"><stop stop-color="#ffffff" offset="0.1"></stop><stop stop-color="rgba(255, 231, 21, 1)" offset="0.2"></stop><stop stop-color="rgba(255, 231, 21, 0)" offset="1"></stop></radialGradient></defs></svg>