<svg id="visual" viewBox="0 0 960 540" width="960" height="540" xmlns="http://www.w3.org/2000/svg" xmlns:xlink="http://www.w3.org/1999/xlink" version="1.1"><g stroke-width="1" stroke-linejoin="bevel"><path d="M453.4 266L550.6 125L383.4 176Z" fill="#5e5800" stroke="#5e5800"></path><path d="M453.4 266L567.6 309L550.6 125Z" fill="#352e00" stroke="#352e00"></path><path d="M550.6 125L436.4 0L383.4 176Z" fill="#000000" stroke="#000000"></path><path d="M652.7 0L570.6 0L550.6 125Z" fill="#ffe715" stroke="#ffe715"></path><path d="M550.6 125L570.6 0L436.4 0Z" fill="#ab9d06" stroke="#ab9d06"></path><path d="M453.4 266L521.6 408L567.6 309Z" fill="#ab9d06" stroke="#ab9d06"></path><path d="M370.4 449L521.6 408L453.4 266Z" fill="#c6b50a" stroke="#c6b50a"></path><path d="M243.3 276L313.3 358L383.4 176Z" fill="#908502" stroke="#908502"></path><path d="M383.4 176L313.3 358L453.4 266Z" fill="#484300" stroke="#484300"></path><path d="M275.3 0L236.3 115L383.4 176Z" fill="#5e5800" stroke="#5e5800"></path><path d="M727.7 156L652.7 0L550.6 125Z" fill="#c6b50a" stroke="#c6b50a"></path><path d="M236.3 115L243.3 276L383.4 176Z" fill="#5e5800" stroke="#5e5800"></path><path d="M728.7 315L727.7 156L567.6 309Z" fill="#776e00" stroke="#776e00"></path><path d="M567.6 309L727.7 156L550.6 125Z" fill="#776e00" stroke="#776e00"></path><path d="M436.4 0L275.3 0L383.4 176Z" fill="#ab9d06" stroke="#ab9d06"></path><path d="M700.7 438L728.7 315L567.6 309Z" fill="#908502" stroke="#908502"></path><path d="M308.3 540L370.4 449L313.3 358Z" fill="#c6b50a" stroke="#c6b50a"></path><path d="M313.3 358L370.4 449L453.4 266Z" fill="#908502" stroke="#908502"></path><path d="M851.9 248L794.9 131L727.7 156Z" fill="#484300" stroke="#484300"></path><path d="M727.7 156L794.9 131L652.7 0Z" fill="#ab9d06" stroke="#ab9d06"></path><path d="M236.3 115L152.1 268L243.3 276Z" fill="#000000" stroke="#000000"></path><path d="M243.3 276L162.1 373L313.3 358Z" fill="#291a00" stroke="#291a00"></path><path d="M114.1 181L152.1 268L236.3 115Z" fill="#e2ce10" stroke="#e2ce10"></path><path d="M521.6 408L700.7 438L567.6 309Z" fill="#ab9d06" stroke="#ab9d06"></path><path d="M728.7 315L851.9 248L727.7 156Z" fill="#000000" stroke="#000000"></path><path d="M535.6 540L700.7 438L521.6 408Z" fill="#908502" stroke="#908502"></path><path d="M143.1 0L114.1 181L236.3 115Z" fill="#352e00" stroke="#352e00"></path><path d="M398.4 540L535.6 540L521.6 408Z" fill="#c6b50a" stroke="#c6b50a"></path><path d="M0 384L162.1 373L152.1 268Z" fill="#e2ce10" stroke="#e2ce10"></path><path d="M152.1 268L162.1 373L243.3 276Z" fill="#291a00" stroke="#291a00"></path><path d="M370.4 449L398.4 540L521.6 408Z" fill="#c6b50a" stroke="#c6b50a"></path><path d="M308.3 540L398.4 540L370.4 449Z" fill="#e2ce10" stroke="#e2ce10"></path><path d="M275.3 0L143.1 0L236.3 115Z" fill="#c6b50a" stroke="#c6b50a"></path><path d="M845.9 428L851.9 248L728.7 315Z" fill="#e2ce10" stroke="#e2ce10"></path><path d="M162.1 373L308.3 540L313.3 358Z" fill="#ffe715" stroke="#ffe715"></path><path d="M794.9 131L848.9 0L652.7 0Z" fill="#352e00" stroke="#352e00"></path><path d="M960 147L848.9 0L794.9 131Z" fill="#ffe715" stroke="#ffe715"></path><path d="M535.6 540L689.7 540L700.7 438Z" fill="#000000" stroke="#000000"></path><path d="M700.7 438L845.9 428L728.7 315Z" fill="#000000" stroke="#000000"></path><path d="M815.9 540L845.9 428L700.7 438Z" fill="#c6b50a" stroke="#c6b50a"></path><path d="M143.1 0L0 100L114.1 181Z" fill="#776e00" stroke="#776e00"></path><path d="M114.1 181L0 256L152.1 268Z" fill="#776e00" stroke="#776e00"></path><path d="M0 100L0 256L114.1 181Z" fill="#291a00" stroke="#291a00"></path><path d="M162.1 373L92.1 540L308.3 540Z" fill="#e2ce10" stroke="#e2ce10"></path><path d="M960 287L960 147L851.9 248Z" fill="#000000" stroke="#000000"></path><path d="M851.9 248L960 147L794.9 131Z" fill="#776e00" stroke="#776e00"></path><path d="M845.9 428L960 287L851.9 248Z" fill="#352e00" stroke="#352e00"></path><path d="M689.7 540L815.9 540L700.7 438Z" fill="#908502" stroke="#908502"></path><path d="M845.9 428L960 439L960 287Z" fill="#ffe715" stroke="#ffe715"></path><path d="M143.1 0L0 0L0 100Z" fill="#484300" stroke="#484300"></path><path d="M960 147L960 0L848.9 0Z" fill="#352e00" stroke="#352e00"></path><path d="M0 256L0 384L152.1 268Z" fill="#484300" stroke="#484300"></path><path d="M0 384L92.1 540L162.1 373Z" fill="#e2ce10" stroke="#e2ce10"></path><path d="M960 540L960 439L845.9 428Z" fill="#c6b50a" stroke="#c6b50a"></path><path d="M0 384L0 540L92.1 540Z" fill="#ffe715" stroke="#ffe715"></path><path d="M815.9 540L960 540L845.9 428Z" fill="#c6b50a" stroke="#c6b50a"></path></g></svg>